<?xml version="1.0" encoding="utf-8"?>
<!-- Generator: Adobe Illustrator 27.7.0, SVG Export Plug-In . SVG Version: 6.00 Build 0)  -->
<svg version="1.1" id="Camada_1" xmlns="http://www.w3.org/2000/svg" xmlns:xlink="http://www.w3.org/1999/xlink" x="0px" y="0px"
	 viewBox="0 0 466 367" style="enable-background:new 0 0 466 367;" xml:space="preserve">
<style type="text/css">
	.st0{display:none;}
	.st1{display:inline;}
</style>
<g class="st0">
	<path class="st1" d="M104.02,239.35c3.58-0.43,7.17-0.68,11.45-0.68c9.78,0,14.14,3.3,14.14,10.4c0,4.16-1.77,7.17-5.28,8.94
		l6.8,12.67h-7.68l-5.57-11.02l-2.75,0.1h-4.21v10.92h-6.89V239.35z M114.29,254.24c6.01,0,8.52-1.45,8.52-5.07
		c0-3.37-2.16-4.98-7.01-4.98c-1.37,0-3.13,0.04-4.9,0.15v9.91H114.29z"/>
	<path class="st1" d="M155.1,261.17h-15.9c0.68,3.19,3.05,4.78,7.85,4.78c2.96,0,5.37-0.53,7.56-1.36v4.93
		c-2.62,1.37-5.48,1.96-9.11,1.96c-7.81,0-13.19-4.51-13.19-12.01c0-7.11,4.56-12.47,12.08-12.47c7.16,0,10.85,4.4,10.85,11.27
		L155.1,261.17z M148.83,256.52c0-2.42-1.45-4.54-4.55-4.54c-2.96,0-4.6,1.84-5.13,4.54H148.83z"/>
	<path class="st1" d="M157.57,269.33v-5.06c2.33,1.11,5.82,1.88,9.21,1.88c3.15,0,5.12-0.38,5.12-2.05c0-1.53-0.86-2.08-5.02-2.4
		c-6.46-0.58-8.99-2.81-8.99-7.4c0-4.84,4.91-7.3,10.62-7.3c3.28,0,6.4,0.71,8.58,1.83v4.92c-1.99-0.95-5.87-1.54-7.84-1.54
		c-2.44,0-4.76,0.24-4.76,1.89c0,1.65,1.25,1.94,4.99,2.33c6.35,0.67,9.06,3.04,9.06,7.59c0,4.73-3.58,7.44-10.95,7.44
		C163.88,271.46,160.1,270.58,157.57,269.33"/>
	<path class="st1" d="M205.06,247.76v22.92h-6.73v-2.56c-2.03,1.75-4.84,3.33-8.1,3.33c-6.02,0-8.77-3.57-8.77-11.12v-12.58h6.87
		v11.56c0,4.35,1.21,5.86,4.49,5.86c2,0,3.71-0.88,5.35-2.09v-15.33H205.06z"/>
	<path class="st1" d="M209.34,263.19v-24.13h6.85v22.88c0,2.27,0.62,3.82,3.08,3.82c1.23,0,2.1-0.18,3.01-0.53v5.27
		c-1.46,0.61-3.05,0.96-5.56,0.96C211.62,271.46,209.34,268.32,209.34,263.19"/>
	<path class="st1" d="M240.41,264.73v5.33c-2.01,0.95-4.03,1.39-6.41,1.39c-7.78,0-10.36-4.54-10.36-11.07v-18.76h6.87v6.12h9.61
		v5.37h-9.61v7.36c0,3.49,1.08,5.28,5.2,5.28C237.67,265.76,238.96,265.43,240.41,264.73"/>
	<path class="st1" d="M268.13,254.24l-2.45-0.63v17.08h-6.6v-2.6c-1.85,1.77-4.31,3.38-7.87,3.38c-5.75,0-9.5-4.7-9.5-11.02
		c0-8.36,5.93-13.41,15.18-13.41c3.93,0,8.11,1.11,11.25,2.38V254.24z M253.64,265.76c1.95,0,3.58-0.88,5.25-2.43V252.8l-2.72-0.13
		c-4.79,0-7.57,2.75-7.57,6.94C248.6,263.32,250.44,265.76,253.64,265.76"/>
	<path class="st1" d="M293.97,239.06v31.62h-6.69v-2.56c-1.89,1.78-4.36,3.34-7.9,3.34c-6.06,0-9.87-4.76-9.87-10.98
		c0-8.41,5.69-13.38,13.31-13.38c1.45,0,2.95,0.23,4.3,0.57v-8.61H293.97z M281.75,265.76c2.1,0,3.88-1.02,5.38-2.34v-10.29
		c-1-0.23-2.13-0.42-3.43-0.42c-4.6,0-7.29,2.65-7.29,6.96C276.41,263.39,278.46,265.76,281.75,265.76"/>
	<path class="st1" d="M297.16,259.23c0-6.91,5.25-12.19,12.75-12.19c7.96,0,12.74,4.99,12.74,12.19c0,6.91-5.13,12.24-12.74,12.24
		C302.03,271.46,297.16,266.49,297.16,259.23 M315.83,259.23c0-4.21-2.14-6.48-5.91-6.48c-3.58,0-5.91,2.57-5.91,6.48
		c0,4.16,2.17,6.53,5.91,6.53C313.5,265.76,315.83,263.24,315.83,259.23"/>
	<path class="st1" d="M324.6,269.33v-5.06c2.33,1.11,5.81,1.88,9.2,1.88c3.15,0,5.13-0.38,5.13-2.05c0-1.53-0.86-2.08-5.03-2.4
		c-6.46-0.58-8.99-2.81-8.99-7.4c0-4.84,4.92-7.3,10.62-7.3c3.29,0,6.41,0.71,8.59,1.83v4.92c-2-0.95-5.87-1.54-7.85-1.54
		c-2.44,0-4.76,0.24-4.76,1.89c0,1.65,1.26,1.94,5,2.33c6.34,0.67,9.06,3.04,9.06,7.59c0,4.73-3.58,7.44-10.96,7.44
		C330.89,271.46,327.12,270.58,324.6,269.33"/>
	<path class="st1" d="M76.84,295.89c0-7.31,5.2-12.59,12.69-12.59c2.59,0,4.6,0.45,6.85,1.56v5.41c-1.6-0.78-3.4-1.2-5.57-1.2
		c-4.52,0-7.02,2.65-7.02,6.6c0,3.92,2.4,6.26,6.62,6.26c2.33,0,4.45-0.49,6.2-1.3v5.26c-2.42,1.3-4.84,1.84-8.29,1.84
		C81.12,307.74,76.84,303,76.84,295.89"/>
	<path class="st1" d="M98.65,295.5c0-6.91,5.25-12.19,12.75-12.19c7.95,0,12.74,4.99,12.74,12.19c0,6.91-5.13,12.24-12.74,12.24
		C103.51,307.74,98.65,302.76,98.65,295.5 M117.31,295.5c0-4.2-2.14-6.48-5.91-6.48c-3.58,0-5.91,2.57-5.91,6.48
		c0,4.16,2.17,6.53,5.91,6.53C114.99,302.03,117.31,299.5,117.31,295.5"/>
	<path class="st1" d="M165.34,294.44v12.54h-6.85V295.5c0-4.3-1.05-5.93-4-5.93c-1.72,0-3.25,0.82-4.8,1.97l0.14,2.91v12.54h-6.88
		V295.5c0-4.3-0.96-5.93-3.99-5.93c-1.59,0-3.2,0.92-4.75,2.12v15.29h-6.82v-22.94h6.74v2.58c1.99-1.7,4.73-3.3,7.64-3.3
		c3.36,0,5.5,1.21,6.75,3.66c2.09-1.82,5.05-3.66,8.63-3.66C162.91,283.31,165.34,286.95,165.34,294.44"/>
	<path class="st1" d="M193.96,294.47c0,8.43-4.99,13.27-13.14,13.27c-1.46,0-3.01-0.25-4.42-0.63v8.94h-6.82v-32.03h6.7v2.63
		c1.94-1.75,4.64-3.34,8.2-3.34C190.27,283.31,193.96,288,193.96,294.47 M187.13,295.17c0-3.73-2.09-6.24-5.33-6.24
		c-2.09,0-3.93,1.07-5.39,2.42v10.25c1.02,0.28,2.14,0.45,3.45,0.45C184.27,302.04,187.13,299.42,187.13,295.17"/>
	<path class="st1" d="M214.18,283.8v6.1l-2.96-0.34c-2.61,0-4.89,0.83-7.11,2.36v15.05h-6.85v-22.93H204v2.62
		c2.13-1.78,4.74-3.15,7.53-3.15C212.67,283.51,213.36,283.6,214.18,283.8"/>
	<path class="st1" d="M215.35,295.5c0-6.91,5.25-12.19,12.75-12.19c7.96,0,12.74,4.99,12.74,12.19c0,6.91-5.13,12.24-12.74,12.24
		C220.22,307.74,215.35,302.76,215.35,295.5 M234.02,295.5c0-4.2-2.14-6.48-5.91-6.48c-3.58,0-5.91,2.57-5.91,6.48
		c0,4.16,2.17,6.53,5.91,6.53C231.69,302.03,234.02,299.5,234.02,295.5"/>
	<polygon class="st1" points="240.35,284.04 247.95,284.04 254.11,300.05 260.45,284.04 267.98,284.04 257.4,306.96 250.49,306.96 	
		"/>
	<path class="st1" d="M293.65,290.51l-2.46-0.63v17.08h-6.59v-2.6c-1.86,1.77-4.31,3.37-7.87,3.37c-5.76,0-9.5-4.69-9.5-11.03
		c0-8.34,5.92-13.38,15.18-13.38c3.93,0,8.09,1.11,11.25,2.37V290.51z M279.15,302.04c1.96,0,3.58-0.88,5.25-2.43v-10.53l-2.71-0.14
		c-4.8,0-7.57,2.76-7.57,6.95C274.12,299.6,275.97,302.04,279.15,302.04"/>
	<path class="st1" d="M319.5,275.34v31.62h-6.69v-2.56c-1.9,1.78-4.36,3.33-7.91,3.33c-6.06,0-9.85-4.75-9.85-10.98
		c0-8.4,5.69-13.37,13.31-13.37c1.45,0,2.95,0.23,4.3,0.57v-8.61H319.5z M307.28,302.04c2.09,0,3.88-1.02,5.38-2.34v-10.29
		c-1.01-0.23-2.13-0.43-3.43-0.43c-4.6,0-7.29,2.66-7.29,6.97C301.95,299.64,304,302.04,307.28,302.04"/>
	<path class="st1" d="M322.7,295.5c0-6.91,5.25-12.19,12.75-12.19c7.95,0,12.74,4.99,12.74,12.19c0,6.91-5.13,12.24-12.74,12.24
		C327.55,307.74,322.7,302.76,322.7,295.5 M341.36,295.5c0-4.2-2.14-6.48-5.91-6.48c-3.58,0-5.91,2.57-5.91,6.48
		c0,4.16,2.17,6.53,5.91,6.53C339.03,302.03,341.36,299.5,341.36,295.5"/>
	<path class="st1" d="M350.13,305.6v-5.06c2.33,1.12,5.82,1.88,9.21,1.88c3.15,0,5.12-0.38,5.12-2.05c0-1.53-0.85-2.07-5.02-2.39
		c-6.45-0.59-8.99-2.82-8.99-7.4c0-4.86,4.91-7.31,10.62-7.31c3.3,0,6.4,0.72,8.59,1.84v4.91c-2-0.95-5.88-1.54-7.85-1.54
		c-2.44,0-4.76,0.24-4.76,1.89c0,1.65,1.26,1.94,5,2.33c6.34,0.67,9.06,3.04,9.06,7.6c0,4.72-3.59,7.44-10.96,7.44
		C356.44,307.74,352.66,306.86,350.13,305.6"/>
	<path class="st1" d="M181.86,200.38l-0.56-0.22c-6.78-1.57-9.94-8.84-6.32-14.82c3.1-5.19,6.32-10.3,9.52-15.47
		c7.34-11.91,14.69-23.81,22.01-35.75l0.65-2.26c0.04-13.84,0.03-27.69,0.04-41.51l-1.1-1.88c-2.96-1.5-4.45-4.91-3.71-8.08
		c0.8-3.34,3.65-5.73,7.12-5.73c9.14-0.03,18.28-0.03,27.42,0c3.46,0,6.3,2.39,7.11,5.73c0.77,3.21-0.77,6.64-3.79,8.15l-1,1.7
		c0.02,13.87,0,27.75,0.04,41.61l0.64,2.28c10.38,16.87,20.73,33.76,31.21,50.57c3.19,5.1,1.83,10.55-1.67,13.28
		c-1.41,1.1-3.26,1.61-4.89,2.41H181.86z M202.78,149.66l-0.12,0.13c-7.85,12.72-15.68,25.41-23.49,38.15l-0.73,2.29
		c-0.21,3.08,2.06,5.23,5.47,5.23c26.08,0.01,52.15,0.01,78.25,0.01l1.22-0.02c2.13-0.18,3.62-1.27,4.38-3.23
		c0.69-1.75,0.18-3.35-0.78-4.88c-7.61-12.32-15.22-24.65-22.83-36.98l-0.62-0.94l-0.37,0.06l-0.46,0.17
		c-4.79,1.94-9.59,1.9-14.36-0.06c-3.41-1.4-6.88-1.4-10.29,0.04c-2.58,1.07-5.27,1.67-8.02,1.36
		C207.64,150.74,205.29,150.15,202.78,149.66 M212.16,114.07l0.99,0.04c2.1,0,4.18-0.02,6.28,0.02c1.48,0.03,2.47,0.96,2.55,2.3
		c0.06,1.3-0.89,2.38-2.32,2.55l-1.71,0.05h-5.75v4.94h1.09c2.08,0.01,4.17-0.03,6.27,0.02c1.37,0.03,2.34,1.02,2.41,2.32
		c0.05,1.25-0.89,2.35-2.21,2.54l-1.59,0.03h-6.08c0,1.22-0.07,2.31,0.01,3.35c0.12,1.52-0.29,2.85-1.15,4.14
		c-1.26,1.85-2.38,3.82-3.56,5.75c-0.59,0.95-1.18,1.92-1.81,2.96c3.36,1.36,6.58,1.43,9.87,0.28c1.19-0.42,2.37-0.92,3.6-1.21
		c4.05-0.92,7.94-0.46,11.78,1.13c3.28,1.35,6.62,1.19,10.02-0.21c-1.92-3.12-3.84-6.13-5.59-9.19l-0.88-3.11
		c-0.06-13.95-0.04-27.91-0.04-41.86v-1.44H212.2v4.88c1.18,0,2.23-0.01,3.3,0c1.38,0,2.77-0.04,4.17,0.05
		c1.42,0.1,2.37,1.25,2.31,2.56c-0.08,1.27-1.05,2.21-2.42,2.29l-1.85,0.01c-1.85,0.01-3.66,0-5.5,0v4.96h1.09
		c2.05,0.01,4.09-0.04,6.16,0.03c1.53,0.06,2.54,1.11,2.53,2.46c-0.02,1.36-1.04,2.34-2.57,2.41l-2.22,0.01h-5.04V114.07z
		 M223.24,84.48c4.46,0,8.92,0.01,13.38-0.01c1.83,0,2.96-1.37,2.6-3.03c-0.27-1.2-1.27-1.88-2.81-1.88
		c-8.76-0.01-17.54-0.01-26.29,0c-1.9,0-2.96,0.91-2.94,2.52c0.01,1.53,1.05,2.41,2.9,2.41H223.24"/>
	<path class="st1" d="M265.44,204.08l-85.24-0.39c-4.13-0.94-7.65-3.84-9.37-7.87c-1.7-4-1.35-8.51,0.98-12.36
		c2.22-3.72,4.49-7.37,6.77-11.06l7.15-11.6c5.89-9.52,11.77-19.05,17.64-28.59l0.13-40.96c-3.86-2.47-5.78-7.14-4.7-11.72
		c1.22-5.03,5.6-8.54,10.7-8.55c9.15-0.04,18.3-0.04,27.45,0c5.11,0.01,9.49,3.52,10.68,8.55c1.1,4.55-0.83,9.21-4.68,11.73
		l0.03,40.59l3.48,5.85c9.23,15.03,18.48,30.08,27.84,45.05c4.43,7.13,2.07,14.52-2.55,18.14c-1.36,1.07-2.84,1.69-4.15,2.23
		L265.44,204.08z M182.59,196.7h81.21l0.98-0.42l2.41-1.2c1.98-1.52,3.07-4.84,0.82-8.44c-9.35-14.99-18.6-30.04-27.85-45.09
		l-3.36-5.49c-0.77-1.2-1.21-2.74-1.21-4.2l-0.05-41.62c0-2.31,1.04-4,3.04-5c1.46-0.72,2.23-2.41,1.87-4
		c-0.42-1.74-1.82-2.89-3.51-2.91c-9.16-0.02-18.29-0.02-27.42,0c-1.71,0.02-3.12,1.18-3.52,2.91c-0.38,1.57,0.37,3.24,1.76,3.95
		c2.09,1.05,3.13,2.78,3.13,5.17l-0.04,41.5c-0.01,1.47-0.46,2.98-1.18,4.19c-5.87,9.56-11.75,19.09-17.63,28.61l-7.16,11.62
		c-2.27,3.64-4.53,7.31-6.75,10.97c-1.09,1.81-1.27,3.87-0.5,5.69c0.79,1.81,2.41,3.14,4.49,3.62L182.59,196.7z"/>
	<path class="st1" d="M238.03,163.35c0.01,4.13-3.25,7.43-7.4,7.43c-4.05-0.01-7.37-3.29-7.39-7.33c-0.02-4.07,3.34-7.46,7.4-7.46
		C234.71,156.02,238.02,159.3,238.03,163.35 M233.09,163.46c0.03-1.39-1.09-2.54-2.45-2.54c-1.3,0-2.43,1.1-2.47,2.41
		c-0.04,1.37,1.08,2.52,2.46,2.53C231.99,165.86,233.06,164.81,233.09,163.46"/>
	<path class="st1" d="M203.49,175.75c-0.01-4.09,3.22-7.36,7.32-7.38c4.1-0.04,7.46,3.27,7.46,7.35c0,4.06-3.38,7.46-7.45,7.41
		C206.75,183.1,203.49,179.78,203.49,175.75 M208.42,175.68c-0.02,1.39,1.12,2.55,2.47,2.53c1.28-0.01,2.43-1.13,2.46-2.43
		c0.03-1.36-1.11-2.48-2.51-2.48C209.5,173.29,208.44,174.33,208.42,175.68"/>
	<path class="st1" d="M235.6,175.78c4.09,0.01,7.34,3.24,7.37,7.31c0.01,4.12-3.31,7.46-7.41,7.43c-4.03-0.01-7.36-3.34-7.38-7.35
		C228.16,179.09,231.48,175.76,235.6,175.78 M238.04,183.19c0.03-1.38-0.98-2.43-2.33-2.49c-1.41-0.05-2.57,0.99-2.61,2.38
		c-0.03,1.34,1.16,2.54,2.48,2.54S238.02,184.53,238.04,183.19"/>
</g>
<g>
	<polygon points="148.99,232.1 148.99,240.22 161.98,240.22 161.98,245.94 148.99,245.94 148.99,258.03 142.05,258.03 
		142.05,226.39 163.44,226.39 163.44,232.1 	"/>
	<path d="M164.92,246.56c0-6.91,5.25-12.19,12.75-12.19c7.96,0,12.74,5,12.74,12.19c0,6.91-5.13,12.25-12.74,12.25
		C169.79,258.8,164.92,253.82,164.92,246.56 M183.59,246.56c0-4.2-2.14-6.48-5.91-6.48c-3.58,0-5.91,2.57-5.91,6.48
		c0,4.16,2.17,6.53,5.91,6.53C181.27,253.09,183.59,250.57,183.59,246.56"/>
	<path d="M192.6,246.95c0-7.31,5.19-12.58,12.69-12.58c2.59,0,4.58,0.43,6.84,1.55v5.41c-1.6-0.78-3.4-1.2-5.57-1.2
		c-4.52,0-7.01,2.65-7.01,6.6c0,3.92,2.39,6.26,6.62,6.26c2.33,0,4.44-0.49,6.2-1.3v5.26c-2.42,1.3-4.85,1.84-8.29,1.84
		C196.86,258.8,192.6,254.06,192.6,246.95"/>
	<path d="M214.39,246.56c0-6.91,5.25-12.19,12.75-12.19c7.96,0,12.74,5,12.74,12.19c0,6.91-5.13,12.25-12.74,12.25
		C219.26,258.8,214.39,253.82,214.39,246.56 M233.06,246.56c0-4.2-2.14-6.48-5.91-6.48c-3.58,0-5.91,2.57-5.91,6.48
		c0,4.16,2.17,6.53,5.91,6.53C230.74,253.09,233.06,250.57,233.06,246.56"/>
	<path d="M274.64,245.5v12.54h-6.88v-11.48c0-4.3-1.3-5.93-4.66-5.93c-1.98,0-3.73,0.86-5.37,2.06v15.35h-6.87V235.1h6.74v2.57
		c2.07-1.69,4.98-3.29,8.23-3.29C271.9,234.37,274.64,238,274.64,245.5"/>
	<path d="M277.68,246.56c0-6.91,5.25-12.19,12.75-12.19c7.96,0,12.74,5,12.74,12.19c0,6.91-5.13,12.25-12.74,12.25
		C282.54,258.8,277.68,253.82,277.68,246.56 M296.34,246.56c0-4.2-2.14-6.48-5.91-6.48c-3.58,0-5.91,2.57-5.91,6.48
		c0,4.16,2.17,6.53,5.91,6.53C294.01,253.09,296.34,250.57,296.34,246.56"/>
	<path d="M94.82,283.22c0-7.3,5.19-12.57,12.69-12.57c2.58,0,4.58,0.42,6.84,1.54v5.42c-1.6-0.79-3.4-1.21-5.57-1.21
		c-4.52,0-7.03,2.65-7.03,6.61c0,3.92,2.41,6.25,6.65,6.25c2.33,0,4.44-0.49,6.19-1.3v5.26c-2.41,1.3-4.84,1.84-8.29,1.84
		C99.09,295.07,94.82,290.33,94.82,283.22"/>
	<path d="M116.62,282.83c0-6.91,5.25-12.19,12.75-12.19c7.95,0,12.74,4.99,12.74,12.19c0,6.91-5.13,12.24-12.74,12.24
		C121.49,295.07,116.62,290.1,116.62,282.83 M135.28,282.83c0-4.21-2.14-6.48-5.91-6.48c-3.58,0-5.91,2.57-5.91,6.48
		c0,4.16,2.17,6.53,5.91,6.53C132.95,289.37,135.28,286.85,135.28,282.83"/>
	<path d="M169.15,281.78v12.53h-6.88v-11.47c0-4.3-1.3-5.93-4.66-5.93c-1.98,0-3.73,0.85-5.38,2.06v15.34h-6.87v-22.93h6.74v2.57
		c2.08-1.7,4.99-3.3,8.24-3.3C166.41,270.64,169.15,274.27,169.15,281.78"/>
	<path d="M172.2,292.94v-5.06c2.33,1.11,5.82,1.88,9.21,1.88c3.15,0,5.12-0.38,5.12-2.05c0-1.53-0.86-2.08-5.02-2.39
		c-6.47-0.59-8.99-2.82-8.99-7.41c0-4.84,4.91-7.3,10.62-7.3c3.28,0,6.4,0.72,8.58,1.83v4.92c-2-0.95-5.87-1.54-7.84-1.54
		c-2.44,0-4.76,0.24-4.76,1.89c0,1.65,1.25,1.94,4.99,2.33c6.35,0.67,9.06,3.04,9.06,7.59c0,4.73-3.58,7.44-10.95,7.44
		C178.5,295.07,174.72,294.19,172.2,292.94"/>
	<path d="M219.69,271.37v22.92h-6.73v-2.55c-2.03,1.74-4.84,3.32-8.1,3.32c-6.02,0-8.77-3.57-8.77-11.11v-12.59h6.86v11.56
		c0,4.35,1.22,5.86,4.5,5.86c2,0,3.71-0.88,5.34-2.09v-15.33H219.69z"/>
	<path d="M261.95,281.78v12.53h-6.85v-11.47c0-4.3-1.05-5.93-4.01-5.93c-1.72,0-3.25,0.82-4.81,1.97l0.16,2.91v12.53h-6.88v-11.47
		c0-4.3-0.95-5.93-3.98-5.93c-1.6,0-3.2,0.91-4.75,2.12v15.28h-6.85v-22.93h6.76v2.57c1.99-1.7,4.74-3.3,7.65-3.3
		c3.34,0,5.5,1.22,6.74,3.7c2.09-1.84,5.05-3.7,8.63-3.7C259.51,270.64,261.95,274.27,261.95,281.78"/>
	<path d="M265.84,265.15c0-1.84,1.23-3.54,3.8-3.54c2.42,0,3.78,1.7,3.78,3.54c0,1.82-1.36,3.57-3.78,3.57
		C267.07,268.72,265.84,266.97,265.84,265.15 M266.19,271.37h6.89v22.92h-6.89V271.37z"/>
	<path d="M300.74,262.67v31.62h-6.71v-2.57c-1.88,1.79-4.35,3.34-7.89,3.34c-6.06,0-9.85-4.75-9.85-10.98
		c0-8.4,5.67-13.38,13.3-13.38c1.45,0,2.95,0.23,4.31,0.56v-8.59H300.74z M288.52,289.37c2.09,0,3.88-1.02,5.38-2.34v-10.29
		c-1.01-0.24-2.14-0.43-3.44-0.43c-4.61,0-7.28,2.66-7.28,6.97C283.18,286.98,285.21,289.37,288.52,289.37"/>
	<path d="M303.91,282.83c0-6.91,5.24-12.19,12.76-12.19c7.95,0,12.74,4.99,12.74,12.19c0,6.91-5.14,12.24-12.74,12.24
		C308.78,295.07,303.91,290.1,303.91,282.83 M322.58,282.83c0-4.21-2.14-6.48-5.91-6.48c-3.59,0-5.92,2.57-5.92,6.48
		c0,4.16,2.17,6.53,5.92,6.53C320.26,289.37,322.58,286.85,322.58,282.83"/>
	<path d="M349.57,271.14v6.1l-2.96-0.34c-2.61,0-4.89,0.83-7.11,2.36v15.05h-6.85v-22.94h6.75v2.63c2.13-1.78,4.74-3.15,7.53-3.15
		C348.05,270.85,348.74,270.94,349.57,271.14"/>
	<path d="M217.31,193.21c-2.89-0.44-5.83-0.76-8.71-1.34c-19.98-3.98-35.67-14.49-47.01-31.32c-8.75-13.04-12.58-27.56-11.96-43.2
		c1.34-32.8,26.08-61.47,58.34-67.67c38.03-7.31,74.88,15.72,84.55,52.88c10.72,41.17-16.28,82.55-58.48,89.64
		c-2.38,0.39-4.77,0.67-7.16,1H217.31z M222.16,58.88c-34.23,0.1-62.03,27.91-61.94,61.99c0.08,34.11,28.02,61.85,62.16,61.73
		c34.13-0.12,61.89-27.86,61.88-61.87C284.25,86.68,256.22,58.77,222.16,58.88"/>
	<path d="M223.25,156.57c-13.62-0.31-24.18-4.93-32.66-14.13c-2.55-2.8-2.59-5.97-0.17-8.15c2.31-2.04,5.54-1.67,7.98,0.93
		c6.9,7.46,15.42,11.1,25.59,10.59c8.65-0.43,15.88-4.04,21.86-10.29c1-1.05,2.37-1.98,3.75-2.38c2.24-0.63,4.45,0.6,5.53,2.55
		c1.04,1.93,0.83,4.36-0.69,6.1c-6.4,7.3-14.33,12.01-23.87,13.87C227.8,156.2,224.97,156.37,223.25,156.57"/>
	<path d="M243.47,93.44c7.39,0.04,13.5,6.06,13.57,13.3c0.03,3.11-1.99,5.41-4.93,5.64c-2.85,0.23-5.36-1.87-5.66-4.93
		c-0.13-1.47-0.59-2.63-2.01-3.2c-1.93-0.79-3.88,0.48-4.13,2.75c-0.3,2.58-1.43,4.48-4.06,5.19c-3.33,0.89-6.49-1.52-6.58-5
		C229.45,99.7,235.78,93.4,243.47,93.44"/>
	<path d="M187.44,106.05c0.2-6.61,6.11-12.49,13.28-12.6c7.42-0.11,13.58,5.4,14.09,12.62c0.24,3.44-1.67,5.95-4.77,6.29
		c-3.06,0.33-5.43-1.81-5.84-5.27c-0.23-1.87-1.38-3.03-3.07-3.04c-1.69-0.02-2.83,1.05-3.06,2.99c-0.22,1.69-0.72,3.24-2.17,4.28
		c-1.7,1.23-3.58,1.46-5.51,0.52C188.26,110.78,187.31,108.98,187.44,106.05"/>
</g>
</svg>
