<?xml version="1.0" encoding="utf-8"?>
<!-- Generator: Adobe Illustrator 27.7.0, SVG Export Plug-In . SVG Version: 6.00 Build 0)  -->
<svg version="1.1" id="Camada_1" xmlns="http://www.w3.org/2000/svg" xmlns:xlink="http://www.w3.org/1999/xlink" x="0px" y="0px"
	 viewBox="0 0 466 367" style="enable-background:new 0 0 466 367;" xml:space="preserve">
<style type="text/css">
	.st0{display:none;}
	.st1{display:inline;}
</style>
<g class="st0">
	<path class="st1" d="M104.02,239.35c3.58-0.43,7.17-0.68,11.45-0.68c9.78,0,14.14,3.3,14.14,10.4c0,4.16-1.77,7.17-5.28,8.94
		l6.8,12.67h-7.68l-5.57-11.02l-2.75,0.1h-4.21v10.92h-6.89V239.35z M114.29,254.24c6.01,0,8.52-1.45,8.52-5.07
		c0-3.37-2.16-4.98-7.01-4.98c-1.37,0-3.13,0.04-4.9,0.15v9.91H114.29z"/>
	<path class="st1" d="M155.1,261.17h-15.9c0.68,3.19,3.05,4.78,7.85,4.78c2.96,0,5.37-0.53,7.56-1.36v4.93
		c-2.62,1.37-5.48,1.96-9.11,1.96c-7.81,0-13.19-4.51-13.19-12.01c0-7.11,4.56-12.47,12.08-12.47c7.16,0,10.85,4.4,10.85,11.27
		L155.1,261.17z M148.83,256.52c0-2.42-1.45-4.54-4.55-4.54c-2.96,0-4.6,1.84-5.13,4.54H148.83z"/>
	<path class="st1" d="M157.57,269.33v-5.06c2.33,1.11,5.82,1.88,9.21,1.88c3.15,0,5.12-0.38,5.12-2.05c0-1.53-0.86-2.08-5.02-2.4
		c-6.46-0.58-8.99-2.81-8.99-7.4c0-4.84,4.91-7.3,10.62-7.3c3.28,0,6.4,0.71,8.58,1.83v4.92c-1.99-0.95-5.87-1.54-7.84-1.54
		c-2.44,0-4.76,0.24-4.76,1.89c0,1.65,1.25,1.94,4.99,2.33c6.35,0.67,9.06,3.04,9.06,7.59c0,4.73-3.58,7.44-10.95,7.44
		C163.88,271.46,160.1,270.58,157.57,269.33"/>
	<path class="st1" d="M205.06,247.76v22.92h-6.73v-2.56c-2.03,1.75-4.84,3.33-8.1,3.33c-6.02,0-8.77-3.57-8.77-11.12v-12.58h6.87
		v11.56c0,4.35,1.21,5.86,4.49,5.86c2,0,3.71-0.88,5.35-2.09v-15.33H205.06z"/>
	<path class="st1" d="M209.34,263.19v-24.13h6.85v22.88c0,2.27,0.62,3.82,3.08,3.82c1.23,0,2.1-0.18,3.01-0.53v5.27
		c-1.46,0.61-3.05,0.96-5.56,0.96C211.62,271.46,209.34,268.32,209.34,263.19"/>
	<path class="st1" d="M240.41,264.73v5.33c-2.01,0.95-4.03,1.39-6.41,1.39c-7.78,0-10.36-4.54-10.36-11.07v-18.76h6.87v6.12h9.61
		v5.37h-9.61v7.36c0,3.49,1.08,5.28,5.2,5.28C237.67,265.76,238.96,265.43,240.41,264.73"/>
	<path class="st1" d="M268.13,254.24l-2.45-0.63v17.08h-6.6v-2.6c-1.85,1.77-4.31,3.38-7.87,3.38c-5.75,0-9.5-4.7-9.5-11.02
		c0-8.36,5.93-13.41,15.18-13.41c3.93,0,8.11,1.11,11.25,2.38V254.24z M253.64,265.76c1.95,0,3.58-0.88,5.25-2.43V252.8l-2.72-0.13
		c-4.79,0-7.57,2.75-7.57,6.94C248.6,263.32,250.44,265.76,253.64,265.76"/>
	<path class="st1" d="M293.97,239.06v31.62h-6.69v-2.56c-1.89,1.78-4.36,3.34-7.9,3.34c-6.06,0-9.87-4.76-9.87-10.98
		c0-8.41,5.69-13.38,13.31-13.38c1.45,0,2.95,0.23,4.3,0.57v-8.61H293.97z M281.75,265.76c2.1,0,3.88-1.02,5.38-2.34v-10.29
		c-1-0.23-2.13-0.42-3.43-0.42c-4.6,0-7.29,2.65-7.29,6.96C276.41,263.39,278.46,265.76,281.75,265.76"/>
	<path class="st1" d="M297.16,259.23c0-6.91,5.25-12.19,12.75-12.19c7.96,0,12.74,4.99,12.74,12.19c0,6.91-5.13,12.24-12.74,12.24
		C302.03,271.46,297.16,266.49,297.16,259.23 M315.83,259.23c0-4.21-2.14-6.48-5.91-6.48c-3.58,0-5.91,2.57-5.91,6.48
		c0,4.16,2.17,6.53,5.91,6.53C313.5,265.76,315.83,263.24,315.83,259.23"/>
	<path class="st1" d="M324.6,269.33v-5.06c2.33,1.11,5.81,1.88,9.2,1.88c3.15,0,5.13-0.38,5.13-2.05c0-1.53-0.86-2.08-5.03-2.4
		c-6.46-0.58-8.99-2.81-8.99-7.4c0-4.84,4.92-7.3,10.62-7.3c3.29,0,6.41,0.71,8.59,1.83v4.92c-2-0.95-5.87-1.54-7.85-1.54
		c-2.44,0-4.76,0.24-4.76,1.89c0,1.65,1.26,1.94,5,2.33c6.34,0.67,9.06,3.04,9.06,7.59c0,4.73-3.58,7.44-10.96,7.44
		C330.89,271.46,327.12,270.58,324.6,269.33"/>
	<path class="st1" d="M76.84,295.89c0-7.31,5.2-12.59,12.69-12.59c2.59,0,4.6,0.45,6.85,1.56v5.41c-1.6-0.78-3.4-1.2-5.57-1.2
		c-4.52,0-7.02,2.65-7.02,6.6c0,3.92,2.4,6.26,6.62,6.26c2.33,0,4.45-0.49,6.2-1.3v5.26c-2.42,1.3-4.84,1.84-8.29,1.84
		C81.12,307.74,76.84,303,76.84,295.89"/>
	<path class="st1" d="M98.65,295.5c0-6.91,5.25-12.19,12.75-12.19c7.95,0,12.74,4.99,12.74,12.19c0,6.91-5.13,12.24-12.74,12.24
		C103.51,307.74,98.65,302.76,98.65,295.5 M117.31,295.5c0-4.2-2.14-6.48-5.91-6.48c-3.58,0-5.91,2.57-5.91,6.48
		c0,4.16,2.17,6.53,5.91,6.53C114.99,302.03,117.31,299.5,117.31,295.5"/>
	<path class="st1" d="M165.34,294.44v12.54h-6.85V295.5c0-4.3-1.05-5.93-4-5.93c-1.72,0-3.25,0.82-4.8,1.97l0.14,2.91v12.54h-6.88
		V295.5c0-4.3-0.96-5.93-3.99-5.93c-1.59,0-3.2,0.92-4.75,2.12v15.29h-6.82v-22.94h6.74v2.58c1.99-1.7,4.73-3.3,7.64-3.3
		c3.36,0,5.5,1.21,6.75,3.66c2.09-1.82,5.05-3.66,8.63-3.66C162.91,283.31,165.34,286.95,165.34,294.44"/>
	<path class="st1" d="M193.96,294.47c0,8.43-4.99,13.27-13.14,13.27c-1.46,0-3.01-0.25-4.42-0.63v8.94h-6.82v-32.03h6.7v2.63
		c1.94-1.75,4.64-3.34,8.2-3.34C190.27,283.31,193.96,288,193.96,294.47 M187.13,295.17c0-3.73-2.09-6.24-5.33-6.24
		c-2.09,0-3.93,1.07-5.39,2.42v10.25c1.02,0.28,2.14,0.45,3.45,0.45C184.27,302.04,187.13,299.42,187.13,295.17"/>
	<path class="st1" d="M214.18,283.8v6.1l-2.96-0.34c-2.61,0-4.89,0.83-7.11,2.36v15.05h-6.85v-22.93H204v2.62
		c2.13-1.78,4.74-3.15,7.53-3.15C212.67,283.51,213.36,283.6,214.18,283.8"/>
	<path class="st1" d="M215.35,295.5c0-6.91,5.25-12.19,12.75-12.19c7.96,0,12.74,4.99,12.74,12.19c0,6.91-5.13,12.24-12.74,12.24
		C220.22,307.74,215.35,302.76,215.35,295.5 M234.02,295.5c0-4.2-2.14-6.48-5.91-6.48c-3.58,0-5.91,2.57-5.91,6.48
		c0,4.16,2.17,6.53,5.91,6.53C231.69,302.03,234.02,299.5,234.02,295.5"/>
	<polygon class="st1" points="240.35,284.04 247.95,284.04 254.11,300.05 260.45,284.04 267.98,284.04 257.4,306.96 250.49,306.96 	
		"/>
	<path class="st1" d="M293.65,290.51l-2.46-0.63v17.08h-6.59v-2.6c-1.86,1.77-4.31,3.37-7.87,3.37c-5.76,0-9.5-4.69-9.5-11.03
		c0-8.34,5.92-13.38,15.18-13.38c3.93,0,8.09,1.11,11.25,2.37V290.51z M279.15,302.04c1.96,0,3.58-0.88,5.25-2.43v-10.53l-2.71-0.14
		c-4.8,0-7.57,2.76-7.57,6.95C274.12,299.6,275.97,302.04,279.15,302.04"/>
	<path class="st1" d="M319.5,275.34v31.62h-6.69v-2.56c-1.9,1.78-4.36,3.33-7.91,3.33c-6.06,0-9.85-4.75-9.85-10.98
		c0-8.4,5.69-13.37,13.31-13.37c1.45,0,2.95,0.23,4.3,0.57v-8.61H319.5z M307.28,302.04c2.09,0,3.88-1.02,5.38-2.34v-10.29
		c-1.01-0.23-2.13-0.43-3.43-0.43c-4.6,0-7.29,2.66-7.29,6.97C301.95,299.64,304,302.04,307.28,302.04"/>
	<path class="st1" d="M322.7,295.5c0-6.91,5.25-12.19,12.75-12.19c7.95,0,12.74,4.99,12.74,12.19c0,6.91-5.13,12.24-12.74,12.24
		C327.55,307.74,322.7,302.76,322.7,295.5 M341.36,295.5c0-4.2-2.14-6.48-5.91-6.48c-3.58,0-5.91,2.57-5.91,6.48
		c0,4.16,2.17,6.53,5.91,6.53C339.03,302.03,341.36,299.5,341.36,295.5"/>
	<path class="st1" d="M350.13,305.6v-5.06c2.33,1.12,5.82,1.88,9.21,1.88c3.15,0,5.12-0.38,5.12-2.05c0-1.53-0.85-2.07-5.02-2.39
		c-6.45-0.59-8.99-2.82-8.99-7.4c0-4.86,4.91-7.31,10.62-7.31c3.3,0,6.4,0.72,8.59,1.84v4.91c-2-0.95-5.88-1.54-7.85-1.54
		c-2.44,0-4.76,0.24-4.76,1.89c0,1.65,1.26,1.94,5,2.33c6.34,0.67,9.06,3.04,9.06,7.6c0,4.72-3.59,7.44-10.96,7.44
		C356.44,307.74,352.66,306.86,350.13,305.6"/>
	<path class="st1" d="M181.86,200.38l-0.56-0.22c-6.78-1.57-9.94-8.84-6.32-14.82c3.1-5.19,6.32-10.3,9.52-15.47
		c7.34-11.91,14.69-23.81,22.01-35.75l0.65-2.26c0.04-13.84,0.03-27.69,0.04-41.51l-1.1-1.88c-2.96-1.5-4.45-4.91-3.71-8.08
		c0.8-3.34,3.65-5.73,7.12-5.73c9.14-0.03,18.28-0.03,27.42,0c3.46,0,6.3,2.39,7.11,5.73c0.77,3.21-0.77,6.64-3.79,8.15l-1,1.7
		c0.02,13.87,0,27.75,0.04,41.61l0.64,2.28c10.38,16.87,20.73,33.76,31.21,50.57c3.19,5.1,1.83,10.55-1.67,13.28
		c-1.41,1.1-3.26,1.61-4.89,2.41H181.86z M202.78,149.66l-0.12,0.13c-7.85,12.72-15.68,25.41-23.49,38.15l-0.73,2.29
		c-0.21,3.08,2.06,5.23,5.47,5.23c26.08,0.01,52.15,0.01,78.25,0.01l1.22-0.02c2.13-0.18,3.62-1.27,4.38-3.23
		c0.69-1.75,0.18-3.35-0.78-4.88c-7.61-12.32-15.22-24.65-22.83-36.98l-0.62-0.94l-0.37,0.06l-0.46,0.17
		c-4.79,1.94-9.59,1.9-14.36-0.06c-3.41-1.4-6.88-1.4-10.29,0.04c-2.58,1.07-5.27,1.67-8.02,1.36
		C207.64,150.74,205.29,150.15,202.78,149.66 M212.16,114.07l0.99,0.04c2.1,0,4.18-0.02,6.28,0.02c1.48,0.03,2.47,0.96,2.55,2.3
		c0.06,1.3-0.89,2.38-2.32,2.55l-1.71,0.05h-5.75v4.94h1.09c2.08,0.01,4.17-0.03,6.27,0.02c1.37,0.03,2.34,1.02,2.41,2.32
		c0.05,1.25-0.89,2.35-2.21,2.54l-1.59,0.03h-6.08c0,1.22-0.07,2.31,0.01,3.35c0.12,1.52-0.29,2.85-1.15,4.14
		c-1.26,1.85-2.38,3.82-3.56,5.75c-0.59,0.95-1.18,1.92-1.81,2.96c3.36,1.36,6.58,1.43,9.87,0.28c1.19-0.42,2.37-0.92,3.6-1.21
		c4.05-0.92,7.94-0.46,11.78,1.13c3.28,1.35,6.62,1.19,10.02-0.21c-1.92-3.12-3.84-6.13-5.59-9.19l-0.88-3.11
		c-0.06-13.95-0.04-27.91-0.04-41.86v-1.44H212.2v4.88c1.18,0,2.23-0.01,3.3,0c1.38,0,2.77-0.04,4.17,0.05
		c1.42,0.1,2.37,1.25,2.31,2.56c-0.08,1.27-1.05,2.21-2.42,2.29l-1.85,0.01c-1.85,0.01-3.66,0-5.5,0v4.96h1.09
		c2.05,0.01,4.09-0.04,6.16,0.03c1.53,0.06,2.54,1.11,2.53,2.46c-0.02,1.36-1.04,2.34-2.57,2.41l-2.22,0.01h-5.04V114.07z
		 M223.24,84.48c4.46,0,8.92,0.01,13.38-0.01c1.83,0,2.96-1.37,2.6-3.03c-0.27-1.2-1.27-1.88-2.81-1.88
		c-8.76-0.01-17.54-0.01-26.29,0c-1.9,0-2.96,0.91-2.94,2.52c0.01,1.53,1.05,2.41,2.9,2.41H223.24"/>
	<path class="st1" d="M265.44,204.08l-85.24-0.39c-4.13-0.94-7.65-3.84-9.37-7.87c-1.7-4-1.35-8.51,0.98-12.36
		c2.22-3.72,4.49-7.37,6.77-11.06l7.15-11.6c5.89-9.52,11.77-19.05,17.64-28.59l0.13-40.96c-3.86-2.47-5.78-7.14-4.7-11.72
		c1.22-5.03,5.6-8.54,10.7-8.55c9.15-0.04,18.3-0.04,27.45,0c5.11,0.01,9.49,3.52,10.68,8.55c1.1,4.55-0.83,9.21-4.68,11.73
		l0.03,40.59l3.48,5.85c9.23,15.03,18.48,30.08,27.84,45.05c4.43,7.13,2.07,14.52-2.55,18.14c-1.36,1.07-2.84,1.69-4.15,2.23
		L265.44,204.08z M182.59,196.7h81.21l0.98-0.42l2.41-1.2c1.98-1.52,3.07-4.84,0.82-8.44c-9.35-14.99-18.6-30.04-27.85-45.09
		l-3.36-5.49c-0.77-1.2-1.21-2.74-1.21-4.2l-0.05-41.62c0-2.31,1.04-4,3.04-5c1.46-0.72,2.23-2.41,1.87-4
		c-0.42-1.74-1.82-2.89-3.51-2.91c-9.16-0.02-18.29-0.02-27.42,0c-1.71,0.02-3.12,1.18-3.52,2.91c-0.38,1.57,0.37,3.24,1.76,3.95
		c2.09,1.05,3.13,2.78,3.13,5.17l-0.04,41.5c-0.01,1.47-0.46,2.98-1.18,4.19c-5.87,9.56-11.75,19.09-17.63,28.61l-7.16,11.62
		c-2.27,3.64-4.53,7.31-6.75,10.97c-1.09,1.81-1.27,3.87-0.5,5.69c0.79,1.81,2.41,3.14,4.49,3.62L182.59,196.7z"/>
	<path class="st1" d="M238.03,163.35c0.01,4.13-3.25,7.43-7.4,7.43c-4.05-0.01-7.37-3.29-7.39-7.33c-0.02-4.07,3.34-7.46,7.4-7.46
		C234.71,156.02,238.02,159.3,238.03,163.35 M233.09,163.46c0.03-1.39-1.09-2.54-2.45-2.54c-1.3,0-2.43,1.1-2.47,2.41
		c-0.04,1.37,1.08,2.52,2.46,2.53C231.99,165.86,233.06,164.81,233.09,163.46"/>
	<path class="st1" d="M203.49,175.75c-0.01-4.09,3.22-7.36,7.32-7.38c4.1-0.04,7.46,3.27,7.46,7.35c0,4.06-3.38,7.46-7.45,7.41
		C206.75,183.1,203.49,179.78,203.49,175.75 M208.42,175.68c-0.02,1.39,1.12,2.55,2.47,2.53c1.28-0.01,2.43-1.13,2.46-2.43
		c0.03-1.36-1.11-2.48-2.51-2.48C209.5,173.29,208.44,174.33,208.42,175.68"/>
	<path class="st1" d="M235.6,175.78c4.09,0.01,7.34,3.24,7.37,7.31c0.01,4.12-3.31,7.46-7.41,7.43c-4.03-0.01-7.36-3.34-7.38-7.35
		C228.16,179.09,231.48,175.76,235.6,175.78 M238.04,183.19c0.03-1.38-0.98-2.43-2.33-2.49c-1.41-0.05-2.57,0.99-2.61,2.38
		c-0.03,1.34,1.16,2.54,2.48,2.54S238.02,184.53,238.04,183.19"/>
</g>
<g class="st0">
	<polygon class="st1" points="148.99,232.1 148.99,240.22 161.98,240.22 161.98,245.94 148.99,245.94 148.99,258.03 142.05,258.03 
		142.05,226.39 163.44,226.39 163.44,232.1 	"/>
	<path class="st1" d="M164.92,246.56c0-6.91,5.25-12.19,12.75-12.19c7.96,0,12.74,5,12.74,12.19c0,6.91-5.13,12.25-12.74,12.25
		C169.79,258.8,164.92,253.82,164.92,246.56 M183.59,246.56c0-4.2-2.14-6.48-5.91-6.48c-3.58,0-5.91,2.57-5.91,6.48
		c0,4.16,2.17,6.53,5.91,6.53C181.27,253.09,183.59,250.57,183.59,246.56"/>
	<path class="st1" d="M192.6,246.95c0-7.31,5.19-12.58,12.69-12.58c2.59,0,4.58,0.43,6.84,1.55v5.41c-1.6-0.78-3.4-1.2-5.57-1.2
		c-4.52,0-7.01,2.65-7.01,6.6c0,3.92,2.39,6.26,6.62,6.26c2.33,0,4.44-0.49,6.2-1.3v5.26c-2.42,1.3-4.85,1.84-8.29,1.84
		C196.86,258.8,192.6,254.06,192.6,246.95"/>
	<path class="st1" d="M214.39,246.56c0-6.91,5.25-12.19,12.75-12.19c7.96,0,12.74,5,12.74,12.19c0,6.91-5.13,12.25-12.74,12.25
		C219.26,258.8,214.39,253.82,214.39,246.56 M233.06,246.56c0-4.2-2.14-6.48-5.91-6.48c-3.58,0-5.91,2.57-5.91,6.48
		c0,4.16,2.17,6.53,5.91,6.53C230.74,253.09,233.06,250.57,233.06,246.56"/>
	<path class="st1" d="M274.64,245.5v12.54h-6.88v-11.48c0-4.3-1.3-5.93-4.66-5.93c-1.98,0-3.73,0.86-5.37,2.06v15.35h-6.87V235.1
		h6.74v2.57c2.07-1.69,4.98-3.29,8.23-3.29C271.9,234.37,274.64,238,274.64,245.5"/>
	<path class="st1" d="M277.68,246.56c0-6.91,5.25-12.19,12.75-12.19c7.96,0,12.74,5,12.74,12.19c0,6.91-5.13,12.25-12.74,12.25
		C282.54,258.8,277.68,253.82,277.68,246.56 M296.34,246.56c0-4.2-2.14-6.48-5.91-6.48c-3.58,0-5.91,2.57-5.91,6.48
		c0,4.16,2.17,6.53,5.91,6.53C294.01,253.09,296.34,250.57,296.34,246.56"/>
	<path class="st1" d="M94.82,283.22c0-7.3,5.19-12.57,12.69-12.57c2.58,0,4.58,0.42,6.84,1.54v5.42c-1.6-0.79-3.4-1.21-5.57-1.21
		c-4.52,0-7.03,2.65-7.03,6.61c0,3.92,2.41,6.25,6.65,6.25c2.33,0,4.44-0.49,6.19-1.3v5.26c-2.41,1.3-4.84,1.84-8.29,1.84
		C99.09,295.07,94.82,290.33,94.82,283.22"/>
	<path class="st1" d="M116.62,282.83c0-6.91,5.25-12.19,12.75-12.19c7.95,0,12.74,4.99,12.74,12.19c0,6.91-5.13,12.24-12.74,12.24
		C121.49,295.07,116.62,290.1,116.62,282.83 M135.28,282.83c0-4.21-2.14-6.48-5.91-6.48c-3.58,0-5.91,2.57-5.91,6.48
		c0,4.16,2.17,6.53,5.91,6.53C132.95,289.37,135.28,286.85,135.28,282.83"/>
	<path class="st1" d="M169.15,281.78v12.53h-6.88v-11.47c0-4.3-1.3-5.93-4.66-5.93c-1.98,0-3.73,0.85-5.38,2.06v15.34h-6.87v-22.93
		h6.74v2.57c2.08-1.7,4.99-3.3,8.24-3.3C166.41,270.64,169.15,274.27,169.15,281.78"/>
	<path class="st1" d="M172.2,292.94v-5.06c2.33,1.11,5.82,1.88,9.21,1.88c3.15,0,5.12-0.38,5.12-2.05c0-1.53-0.86-2.08-5.02-2.39
		c-6.47-0.59-8.99-2.82-8.99-7.41c0-4.84,4.91-7.3,10.62-7.3c3.28,0,6.4,0.72,8.58,1.83v4.92c-2-0.95-5.87-1.54-7.84-1.54
		c-2.44,0-4.76,0.24-4.76,1.89c0,1.65,1.25,1.94,4.99,2.33c6.35,0.67,9.06,3.04,9.06,7.59c0,4.73-3.58,7.44-10.95,7.44
		C178.5,295.07,174.72,294.19,172.2,292.94"/>
	<path class="st1" d="M219.69,271.37v22.92h-6.73v-2.55c-2.03,1.74-4.84,3.32-8.1,3.32c-6.02,0-8.77-3.57-8.77-11.11v-12.59h6.86
		v11.56c0,4.35,1.22,5.86,4.5,5.86c2,0,3.71-0.88,5.34-2.09v-15.33H219.69z"/>
	<path class="st1" d="M261.95,281.78v12.53h-6.85v-11.47c0-4.3-1.05-5.93-4.01-5.93c-1.72,0-3.25,0.82-4.81,1.97l0.16,2.91v12.53
		h-6.88v-11.47c0-4.3-0.95-5.93-3.98-5.93c-1.6,0-3.2,0.91-4.75,2.12v15.28h-6.85v-22.93h6.76v2.57c1.99-1.7,4.74-3.3,7.65-3.3
		c3.34,0,5.5,1.22,6.74,3.7c2.09-1.84,5.05-3.7,8.63-3.7C259.51,270.64,261.95,274.27,261.95,281.78"/>
	<path class="st1" d="M265.84,265.15c0-1.84,1.23-3.54,3.8-3.54c2.42,0,3.78,1.7,3.78,3.54c0,1.82-1.36,3.57-3.78,3.57
		C267.07,268.72,265.84,266.97,265.84,265.15 M266.19,271.37h6.89v22.92h-6.89V271.37z"/>
	<path class="st1" d="M300.74,262.67v31.62h-6.71v-2.57c-1.88,1.79-4.35,3.34-7.89,3.34c-6.06,0-9.85-4.75-9.85-10.98
		c0-8.4,5.67-13.38,13.3-13.38c1.45,0,2.95,0.23,4.31,0.56v-8.59H300.74z M288.52,289.37c2.09,0,3.88-1.02,5.38-2.34v-10.29
		c-1.01-0.24-2.14-0.43-3.44-0.43c-4.61,0-7.28,2.66-7.28,6.97C283.18,286.98,285.21,289.37,288.52,289.37"/>
	<path class="st1" d="M303.91,282.83c0-6.91,5.24-12.19,12.76-12.19c7.95,0,12.74,4.99,12.74,12.19c0,6.91-5.14,12.24-12.74,12.24
		C308.78,295.07,303.91,290.1,303.91,282.83 M322.58,282.83c0-4.21-2.14-6.48-5.91-6.48c-3.59,0-5.92,2.57-5.92,6.48
		c0,4.16,2.17,6.53,5.92,6.53C320.26,289.37,322.58,286.85,322.58,282.83"/>
	<path class="st1" d="M349.57,271.14v6.1l-2.96-0.34c-2.61,0-4.89,0.83-7.11,2.36v15.05h-6.85v-22.94h6.75v2.63
		c2.13-1.78,4.74-3.15,7.53-3.15C348.05,270.85,348.74,270.94,349.57,271.14"/>
	<path class="st1" d="M217.31,193.21c-2.89-0.44-5.83-0.76-8.71-1.34c-19.98-3.98-35.67-14.49-47.01-31.32
		c-8.75-13.04-12.58-27.56-11.96-43.2c1.34-32.8,26.08-61.47,58.34-67.67c38.03-7.31,74.88,15.72,84.55,52.88
		c10.72,41.17-16.28,82.55-58.48,89.64c-2.38,0.39-4.77,0.67-7.16,1H217.31z M222.16,58.88c-34.23,0.1-62.03,27.91-61.94,61.99
		c0.08,34.11,28.02,61.85,62.16,61.73c34.13-0.12,61.89-27.86,61.88-61.87C284.25,86.68,256.22,58.77,222.16,58.88"/>
	<path class="st1" d="M223.25,156.57c-13.62-0.31-24.18-4.93-32.66-14.13c-2.55-2.8-2.59-5.97-0.17-8.15
		c2.31-2.04,5.54-1.67,7.98,0.93c6.9,7.46,15.42,11.1,25.59,10.59c8.65-0.43,15.88-4.04,21.86-10.29c1-1.05,2.37-1.98,3.75-2.38
		c2.24-0.63,4.45,0.6,5.53,2.55c1.04,1.93,0.83,4.36-0.69,6.1c-6.4,7.3-14.33,12.01-23.87,13.87
		C227.8,156.2,224.97,156.37,223.25,156.57"/>
	<path class="st1" d="M243.47,93.44c7.39,0.04,13.5,6.06,13.57,13.3c0.03,3.11-1.99,5.41-4.93,5.64c-2.85,0.23-5.36-1.87-5.66-4.93
		c-0.13-1.47-0.59-2.63-2.01-3.2c-1.93-0.79-3.88,0.48-4.13,2.75c-0.3,2.58-1.43,4.48-4.06,5.19c-3.33,0.89-6.49-1.52-6.58-5
		C229.45,99.7,235.78,93.4,243.47,93.44"/>
	<path class="st1" d="M187.44,106.05c0.2-6.61,6.11-12.49,13.28-12.6c7.42-0.11,13.58,5.4,14.09,12.62
		c0.24,3.44-1.67,5.95-4.77,6.29c-3.06,0.33-5.43-1.81-5.84-5.27c-0.23-1.87-1.38-3.03-3.07-3.04c-1.69-0.02-2.83,1.05-3.06,2.99
		c-0.22,1.69-0.72,3.24-2.17,4.28c-1.7,1.23-3.58,1.46-5.51,0.52C188.26,110.78,187.31,108.98,187.44,106.05"/>
</g>
<g class="st0">
	<polygon class="st1" points="126.18,242.2 126.18,247.4 105.1,247.4 105.1,218.01 125.69,218.01 125.69,223.23 111.5,223.23 
		111.5,229.87 124.39,229.87 124.39,235.09 111.5,235.09 111.5,242.2 	"/>
	<path class="st1" d="M165.62,235.77v11.65h-6.32v-10.65c0-4.01-1-5.53-3.74-5.53c-1.58,0-3.01,0.76-4.45,1.85l0.13,2.68v11.65
		h-6.39v-10.65c0-4.01-0.9-5.53-3.67-5.53c-1.48,0-2.97,0.86-4.41,1.98v14.2h-6.34v-21.3h6.26v2.38c1.83-1.57,4.39-3.04,7.09-3.04
		c3.1,0,5.08,1.12,6.24,3.4c1.94-1.7,4.67-3.4,8-3.4C163.38,225.45,165.62,228.8,165.62,235.77"/>
	<path class="st1" d="M193.76,235.67c0,7.82-4.98,12.45-13.61,12.45c-3.97,0-7.91-1.02-10.82-2.25v-4.4l2.23,0.54v-24.01h6.36v10.39
		c1.69-1.57,3.93-2.97,7.31-2.97C190.52,225.43,193.76,229.84,193.76,235.67 M187.39,236.45c0-3.46-1.59-5.71-4.77-5.71
		c-1.89,0-3.36,0.94-4.7,2.16v9.88l2.5,0.2C184.85,242.97,187.39,240.34,187.39,236.45"/>
	<path class="st1" d="M221.92,232.12l-2.29-0.57v15.86h-6.11v-2.42c-1.72,1.66-4.01,3.14-7.29,3.14c-5.35,0-8.81-4.36-8.81-10.25
		c0-7.75,5.49-12.44,14.07-12.44c3.64,0,7.52,1.02,10.42,2.21V232.12z M208.48,242.83c1.8,0,3.32-0.82,4.85-2.26v-9.79l-2.53-0.13
		c-4.45,0-6.99,2.56-6.99,6.47C203.82,240.58,205.52,242.83,208.48,242.83"/>
	<path class="st1" d="M225.77,240.44v-22.43h6.35v21.26c0,2.11,0.58,3.57,2.87,3.57c1.11,0,1.93-0.2,2.78-0.5v4.89
		c-1.35,0.59-2.84,0.9-5.17,0.9C227.88,248.13,225.77,245.21,225.77,240.44"/>
	<path class="st1" d="M264.04,232.12l-2.29-0.57v15.86h-6.11v-2.42c-1.72,1.66-4.01,3.14-7.29,3.14c-5.35,0-8.81-4.36-8.81-10.25
		c0-7.75,5.49-12.44,14.07-12.44c3.64,0,7.52,1.02,10.42,2.21V232.12z M250.61,242.83c1.8,0,3.32-0.82,4.85-2.26v-9.79l-2.53-0.13
		c-4.45,0-6.99,2.56-6.99,6.47C245.95,240.58,247.65,242.83,250.61,242.83"/>
	<path class="st1" d="M291.44,232.13l-2.29-0.58v14.54c0,6.75-4.31,10.39-11.5,10.39c-3.69,0-6.99-0.67-9.52-1.88v-4.9
		c2.4,1.17,5.11,1.8,8.13,1.8c4.53,0,6.6-1.68,6.6-5.79v-1.46c-1.71,1.58-3.96,2.98-7.29,2.98c-5.18,0-8.62-3.61-8.62-9.44
		c0-7.74,5.53-12.41,14.07-12.41c3.59,0,7.5,1.04,10.42,2.25V232.13z M282.85,239.77v-8.93l-2.53-0.18c-4.45,0-7,2.36-7,6.24
		c0,3.45,1.63,5.18,4.72,5.18C279.75,242.07,281.32,241.21,282.85,239.77"/>
	<path class="st1" d="M315.5,238.56h-14.72c0.61,2.96,2.82,4.44,7.26,4.44c2.75,0,4.99-0.51,7.02-1.25v4.58
		c-2.43,1.26-5.08,1.8-8.46,1.8c-7.21,0-12.21-4.17-12.21-11.15c0-6.59,4.21-11.58,11.19-11.58c6.66,0,10.07,4.08,10.07,10.48
		L315.5,238.56z M309.7,234.24c0-2.26-1.35-4.23-4.22-4.23c-2.74,0-4.26,1.71-4.76,4.23H309.7z"/>
	<path class="st1" d="M355.57,235.77v11.65h-6.35v-10.65c0-4.01-0.99-5.53-3.73-5.53c-1.57,0-3.01,0.76-4.44,1.85l0.13,2.68v11.65
		h-6.39v-10.65c0-4.01-0.9-5.53-3.69-5.53c-1.48,0-2.96,0.86-4.4,1.98v14.2h-6.34v-21.3h6.24v2.38c1.85-1.57,4.41-3.04,7.09-3.04
		c3.12,0,5.1,1.12,6.26,3.4c1.94-1.7,4.67-3.4,7.99-3.4C353.31,225.45,355.57,228.8,355.57,235.77"/>
	<path class="st1" d="M68.65,266.51h9.13v5.04h-9.13v15.77H62.3v-19.68c0-6.08,2.53-10.43,9.76-10.43c2.44,0,4.05,0.51,5.92,1.31
		V263c-1.34-0.57-2.54-0.93-4.44-0.93C69.9,262.07,68.74,263.6,68.65,266.51"/>
	<path class="st1" d="M101.13,278.45H86.4c0.62,2.98,2.83,4.46,7.27,4.46c2.75,0,4.99-0.51,7.02-1.25v4.58
		c-2.43,1.26-5.08,1.8-8.46,1.8c-7.22,0-12.21-4.17-12.21-11.15c0-6.59,4.21-11.58,11.19-11.58c6.66,0,10.07,4.08,10.07,10.48
		L101.13,278.45z M95.33,274.16c0-2.26-1.35-4.23-4.22-4.23c-2.74,0-4.26,1.71-4.76,4.23H95.33z"/>
	<path class="st1" d="M105.78,260.23c0-1.71,1.13-3.3,3.51-3.3c2.25,0,3.5,1.59,3.5,3.3c0,1.7-1.25,3.3-3.5,3.3
		C106.91,263.53,105.78,261.93,105.78,260.23 M106.1,266.02h6.39v21.3h-6.39V266.02z"/>
	<path class="st1" d="M133.5,281.79v4.95c-1.84,0.89-3.73,1.29-5.94,1.29c-7.23,0-9.61-4.22-9.61-10.29v-17.43h6.39v5.69h8.89v5
		h-8.89v6.83c0,3.23,0.98,4.9,4.8,4.9C130.95,282.74,132.15,282.41,133.5,281.79"/>
	<path class="st1" d="M160.54,272.03l-2.29-0.57v15.86h-6.11v-2.42c-1.72,1.66-4.01,3.14-7.29,3.14c-5.35,0-8.81-4.36-8.81-10.25
		c0-7.74,5.49-12.44,14.07-12.44c3.64,0,7.52,1.05,10.42,2.22V272.03z M147.1,282.74c1.8,0,3.32-0.81,4.85-2.26v-9.79l-2.53-0.13
		c-4.45,0-6.99,2.56-6.99,6.48C142.45,280.48,144.14,282.74,147.1,282.74"/>
	<path class="st1" d="M199.29,272.03l-2.29-0.57v15.86h-6.12v-2.42c-1.71,1.66-4.01,3.14-7.29,3.14c-5.35,0-8.8-4.36-8.8-10.25
		c0-7.74,5.49-12.44,14.07-12.44c3.63,0,7.5,1.05,10.42,2.22V272.03z M185.86,282.74c1.8,0,3.32-0.81,4.84-2.26v-9.79l-2.52-0.13
		c-4.46,0-7,2.56-7,6.48C181.19,280.48,182.9,282.74,185.86,282.74"/>
	<path class="st1" d="M237.1,275.72c0,7.83-4.63,12.32-12.18,12.32c-1.35,0-2.76-0.22-4.08-0.58v8.31h-6.35v-29.76h6.21v2.44
		c1.79-1.64,4.32-3.12,7.6-3.12C233.69,265.34,237.1,269.69,237.1,275.72 M230.78,276.35c0-3.45-1.94-5.79-4.95-5.79
		c-1.94,0-3.64,0.99-4.99,2.24v9.53c0.94,0.27,2,0.4,3.19,0.4C228.13,282.74,230.78,280.31,230.78,276.35"/>
	<path class="st1" d="M265.24,272.03l-2.28-0.57v15.86h-6.11v-2.42c-1.72,1.66-4.01,3.14-7.29,3.14c-5.35,0-8.81-4.36-8.81-10.25
		c0-7.74,5.49-12.44,14.08-12.44c3.63,0,7.5,1.05,10.4,2.22V272.03z M251.83,282.74c1.79,0,3.31-0.81,4.84-2.26v-9.79l-2.52-0.13
		c-4.46,0-7,2.56-7,6.48C247.16,280.48,248.86,282.74,251.83,282.74"/>
	<path class="st1" d="M284.78,265.8v5.66l-2.73-0.31c-2.42,0-4.54,0.75-6.6,2.19v13.97h-6.34v-21.3h6.26v2.42
		c1.97-1.66,4.38-2.91,6.94-2.91C283.39,265.53,284.03,265.61,284.78,265.8"/>
	<path class="st1" d="M304.05,281.79v4.95c-1.84,0.89-3.73,1.29-5.94,1.29c-7.23,0-9.61-4.22-9.61-10.29v-17.43h6.37v5.69h8.91v5
		h-8.91v6.83c0,3.23,0.99,4.9,4.81,4.9C301.49,282.74,302.7,282.41,304.05,281.79"/>
	<path class="st1" d="M307.58,260.23c0-1.71,1.13-3.3,3.51-3.3c2.26,0,3.5,1.59,3.5,3.3c0,1.7-1.24,3.3-3.5,3.3
		C308.71,263.53,307.58,261.93,307.58,260.23 M307.9,266.02h6.39v21.3h-6.39V266.02z"/>
	<path class="st1" d="M335.63,265.8v5.66l-2.74-0.31c-2.42,0-4.55,0.75-6.6,2.19v13.97h-6.35v-21.3h6.26v2.42
		c1.96-1.66,4.4-2.91,6.94-2.91C334.22,265.53,334.85,265.61,335.63,265.8"/>
	<path class="st1" d="M372.59,257.93v29.39h-6.2v-2.37c-1.76,1.66-4.04,3.08-7.33,3.08c-5.61,0-9.12-4.39-9.12-10.19
		c0-7.81,5.25-12.45,12.32-12.45c1.35,0,2.73,0.23,4,0.54v-8H372.59z M361.26,282.74c1.94,0,3.58-0.94,4.99-2.15V271
		c-0.94-0.23-1.98-0.4-3.19-0.4c-4.28,0-6.75,2.48-6.75,6.47C356.32,280.52,358.2,282.74,361.26,282.74"/>
	<path class="st1" d="M398.26,278.45h-14.73c0.62,2.98,2.83,4.46,7.27,4.46c2.75,0,4.99-0.51,7.02-1.25v4.58
		c-2.43,1.26-5.08,1.8-8.46,1.8c-7.21,0-12.21-4.17-12.21-11.15c0-6.59,4.21-11.58,11.19-11.58c6.66,0,10.07,4.08,10.07,10.48
		L398.26,278.45z M392.47,274.16c0-2.26-1.35-4.23-4.22-4.23c-2.74,0-4.26,1.71-4.77,4.23H392.47z"/>
	<path class="st1" d="M60.8,312.69c0-9.03,6.59-15.47,15.36-15.47c3.23,0,5.71,0.55,7.98,1.71v5.31c-2.09-0.9-4.08-1.49-6.95-1.49
		c-6.2,0-9.83,4.05-9.83,9.9c0,5.83,3.04,9.69,9.2,9.69c3.31,0,5.61-0.58,7.86-1.56v5.26c-2.33,1.17-5.69,1.84-9.21,1.84
		C66.31,327.87,60.8,322.16,60.8,312.69"/>
	<path class="st1" d="M112.63,311.95l-2.3-0.57v15.86h-6.11v-2.42c-1.72,1.66-4.01,3.14-7.29,3.14c-5.34,0-8.81-4.36-8.81-10.25
		c0-7.75,5.49-12.44,14.08-12.44c3.62,0,7.5,1.02,10.42,2.2V311.95z M99.19,322.67c1.8,0,3.31-0.82,4.84-2.26v-9.79l-2.51-0.13
		c-4.47,0-7.01,2.56-7.01,6.47C94.53,320.41,96.22,322.67,99.19,322.67"/>
	<path class="st1" d="M138.53,315.6v11.65h-6.38v-10.65c0-4.01-1.21-5.53-4.33-5.53c-1.83,0-3.43,0.81-4.97,1.93v14.25h-6.4v-21.3
		h6.26v2.38c1.94-1.57,4.62-3.05,7.63-3.05C135.97,305.27,138.53,308.63,138.53,315.6"/>
	<path class="st1" d="M167.46,311.95l-2.3-0.57v15.86h-6.11v-2.42c-1.72,1.66-4.01,3.14-7.29,3.14c-5.35,0-8.81-4.36-8.81-10.25
		c0-7.75,5.49-12.44,14.08-12.44c3.63,0,7.5,1.02,10.42,2.2V311.95z M154.02,322.67c1.8,0,3.31-0.82,4.84-2.26v-9.79l-2.52-0.13
		c-4.46,0-7,2.56-7,6.47C149.35,320.41,151.05,322.67,154.02,322.67"/>
	<rect x="171.26" y="312.63" class="st1" width="16.72" height="5.21"/>
	<path class="st1" d="M215.19,297.84v29.4h-6.2v-2.37c-1.76,1.65-4.04,3.08-7.33,3.08c-5.61,0-9.12-4.4-9.12-10.19
		c0-7.82,5.25-12.45,12.32-12.45c1.34,0,2.73,0.23,4,0.54v-8.01H215.19z M203.86,322.67c1.94,0,3.58-0.95,4.99-2.16v-9.58
		c-0.94-0.23-1.98-0.4-3.19-0.4c-4.28,0-6.75,2.47-6.75,6.47C198.92,320.44,200.8,322.67,203.86,322.67"/>
	<path class="st1" d="M240.88,318.4h-14.73c0.62,2.96,2.83,4.44,7.27,4.44c2.75,0,4.99-0.51,7.02-1.25v4.58
		c-2.43,1.26-5.08,1.8-8.46,1.8c-7.21,0-12.21-4.17-12.21-11.15c0-6.59,4.21-11.58,11.19-11.58c6.65,0,10.07,4.08,10.07,10.48
		L240.88,318.4z M235.08,314.08c0-2.26-1.35-4.23-4.22-4.23c-2.74,0-4.26,1.71-4.76,4.23H235.08z"/>
	<rect x="245.72" y="312.63" class="st1" width="16.72" height="5.21"/>
	<path class="st1" d="M285.91,319.88h-12l-2.68,7.38h-6.61l11.76-29.41h7.61l11.37,29.41h-6.83L285.91,319.88z M284.07,314.62
		l-4.05-11.37l-4.17,11.37H284.07z"/>
	<path class="st1" d="M297.58,316.95c0-6.79,4.8-11.68,11.77-11.68c2.36,0,4.23,0.39,6.34,1.43v5.04c-1.47-0.71-3.14-1.12-5.16-1.12
		c-4.19,0-6.52,2.46-6.52,6.15c0,3.63,2.25,5.81,6.15,5.81c2.15,0,4.14-0.46,5.76-1.22v4.9c-2.24,1.21-4.49,1.71-7.68,1.71
		C301.54,327.97,297.58,323.56,297.58,316.95 M302.34,336.51v-2.93c1.44,0.62,3.01,0.84,4.26,0.84c1.59,0,2.24-0.24,2.24-1.11
		c0-0.82-0.75-1.13-2.05-1.13h-1.48v-2.84h1.57c3.9,0,5.92,1.41,5.92,4.06c0,2.78-2.38,4.16-5.66,4.16
		C305.4,337.56,303.88,337.25,302.34,336.51"/>
	<path class="st1" d="M341.9,305.93v21.31h-6.24v-2.38c-1.88,1.59-4.48,3.09-7.49,3.09c-5.57,0-8.13-3.32-8.13-10.33v-11.7h6.38
		v10.76c0,4.03,1.12,5.43,4.18,5.43c1.83,0,3.43-0.81,4.94-1.95v-14.24H341.9z M332.43,302.81h-5.35l5.94-6.36h6.01L332.43,302.81z"
		/>
	<path class="st1" d="M346.48,316.95c0-6.79,4.8-11.69,11.77-11.69c2.38,0,4.24,0.4,6.34,1.44v5.04c-1.47-0.71-3.14-1.14-5.15-1.14
		c-4.19,0-6.52,2.48-6.52,6.17c0,3.62,2.25,5.79,6.15,5.79c2.16,0,4.14-0.45,5.76-1.22v4.92c-2.24,1.21-4.49,1.71-7.67,1.71
		C350.43,327.97,346.48,323.56,346.48,316.95"/>
	<path class="st1" d="M392.04,311.95l-2.3-0.57v15.86h-6.11v-2.42c-1.72,1.66-4.01,3.14-7.29,3.14c-5.34,0-8.81-4.36-8.81-10.25
		c0-7.75,5.49-12.44,14.08-12.44c3.63,0,7.5,1.02,10.42,2.2V311.95z M378.61,322.67c1.79,0,3.31-0.82,4.84-2.26v-9.79l-2.51-0.13
		c-4.47,0-7.01,2.56-7.01,6.47C373.94,320.41,375.64,322.67,378.61,322.67"/>
	<path class="st1" d="M411.55,305.72v5.66l-2.74-0.31c-2.42,0-4.55,0.75-6.59,2.18v13.99h-6.35v-21.3h6.25v2.42
		c1.97-1.66,4.4-2.91,6.94-2.91C410.15,305.45,410.79,305.55,411.55,305.72"/>
	<rect x="232.67" y="111.18" class="st1" width="10.51" height="29.43"/>
	<rect x="209.13" y="111.18" class="st1" width="10.51" height="29.43"/>
	<rect x="232.67" y="147.75" class="st1" width="10.51" height="29.43"/>
	<rect x="253.17" y="147.75" class="st1" width="10.51" height="29.43"/>
	<rect x="209.13" y="147.75" class="st1" width="10.51" height="29.43"/>
	<rect x="232.67" y="73.34" class="st1" width="10.51" height="29.43"/>
	<path class="st1" d="M247.58,43.25c3.71-4.04,8.84-6.38,15.32-7c-0.42,4.08-1.84,10.84-6.5,15.91c-3.7,4.04-8.88,6.39-15.42,7.01
		C241.43,55.08,242.88,48.35,247.58,43.25 M234,66.57h3.31c10.3,0,18.45-3.18,24.16-9.47c9.14-10.03,8.55-24.21,8.53-24.81
		l-0.17-3.44h-3.29c-10.18,0-18.25,3.16-23.96,9.38c-9.22,10.04-8.76,24.27-8.73,24.89L234,66.57z"/>
	<path class="st1" d="M282.12,110.02c-0.58,5.85-3.21,17.11-14.74,21.34c-2.15,0.81-4.59,1.34-7.22,1.58
		c0.45-4.08,1.9-10.82,6.59-15.93C270.49,112.99,275.63,110.64,282.12,110.02 M253.05,136.89l0.13,3.46h3.32
		c4.87,0,9.3-0.72,13.18-2.15c16.37-6.04,19.93-23.67,19.51-32.14l-0.18-3.43h-3.3c-10.17,0-18.24,3.15-23.95,9.39
		C252.56,122.04,253.02,136.28,253.05,136.89"/>
	<path class="st1" d="M205.48,81.77c3.85,3.86,6.12,9.25,6.72,16.1c-3.93-0.47-10.36-2-15.28-6.89c-3.86-3.87-6.1-9.22-6.7-15.99
		C194.14,75.42,200.61,76.91,205.48,81.77 M215.32,105.29h0.64l3.32-0.15v-3.48c0-10.74-3.05-19.21-9.07-25.2
		c-9.63-9.53-23.21-8.94-23.8-8.9l-3.3,0.16v3.45c0,10.63,3.04,19.04,9.01,25.01C200.69,104.75,212.45,105.29,215.32,105.29"/>
	<rect x="191.09" y="174.2" class="st1" width="92.2" height="10.91"/>
</g>
<g>
	<polygon points="134.12,245.54 142.17,245.54 151,270.11 160.06,245.54 167.81,245.54 154.92,277.18 146.72,277.18 	"/>
	<path d="M188.95,267.65h-15.9c0.67,3.19,3.05,4.78,7.86,4.78c2.96,0,5.37-0.53,7.56-1.36V276c-2.63,1.37-5.49,1.96-9.11,1.96
		c-7.82,0-13.19-4.51-13.19-12.01c0-7.11,4.55-12.47,12.07-12.47c7.17,0,10.86,4.4,10.86,11.27L188.95,267.65z M182.7,263
		c0-2.42-1.46-4.54-4.55-4.54c-2.96,0-4.6,1.84-5.14,4.54H182.7z"/>
	<path d="M217.92,260.74l-2.46-0.63v15.66c0,7.26-4.66,11.17-12.41,11.17c-3.98,0-7.53-0.72-10.29-2.03v-5.27
		c2.63,1.26,5.55,1.95,8.78,1.95c4.9,0,7.13-1.8,7.13-6.24v-1.56c-1.85,1.7-4.28,3.2-7.87,3.2c-5.55,0-9.3-3.87-9.3-10.15
		c0-8.31,5.95-13.34,15.15-13.34c3.9,0,8.12,1.11,11.26,2.41V260.74z M208.67,268.96v-9.63l-2.71-0.2c-4.79,0-7.59,2.56-7.59,6.74
		c0,3.72,1.77,5.55,5.11,5.55C205.32,271.42,207.01,270.5,208.67,268.96"/>
	<path d="M245.67,260.72l-2.46-0.63v17.08h-6.59v-2.6c-1.86,1.77-4.31,3.38-7.88,3.38c-5.75,0-9.49-4.7-9.49-11.02
		c0-8.36,5.92-13.41,15.18-13.41c3.93,0,8.09,1.11,11.25,2.38V260.72z M231.17,272.24c1.96,0,3.58-0.88,5.25-2.43v-10.53l-2.71-0.13
		c-4.8,0-7.57,2.75-7.57,6.94C226.14,269.81,227.98,272.24,231.17,272.24"/>
	<path d="M272.25,264.65v12.53h-6.89v-11.47c0-4.3-1.3-5.93-4.65-5.93c-1.98,0-3.73,0.85-5.38,2.06v15.34h-6.87v-22.93h6.74v2.57
		c2.07-1.7,4.99-3.3,8.23-3.3C269.5,253.51,272.25,257.15,272.25,264.65"/>
	<path d="M275.28,265.71c0-6.91,5.25-12.19,12.75-12.19c7.95,0,12.74,4.99,12.74,12.19c0,6.91-5.13,12.25-12.74,12.25
		C280.13,277.95,275.28,272.97,275.28,265.71 M293.94,265.71c0-4.2-2.14-6.48-5.91-6.48c-3.59,0-5.92,2.57-5.92,6.48
		c0,4.16,2.18,6.54,5.92,6.54C291.61,272.25,293.94,269.72,293.94,265.71"/>
	<path d="M209.11,163.99c-11.05,1.24-21.92-1.89-30.61-8.84c-13.64-10.9-19.05-29.35-13.41-45.91l0.68-0.83
		c5.19-3.17,11.13-5.19,17.19-5.86c11.06-1.23,21.95,1.9,30.61,8.84c13.66,10.9,19.05,29.34,13.42,45.9l-0.65,0.85
		C221.14,161.31,215.2,163.33,209.11,163.99 M224.19,155.74c4.91-15.16-0.11-31.93-12.58-41.88c-8.01-6.4-18.06-9.32-28.3-8.18
		c-5.4,0.6-10.72,2.38-15.41,5.13c-4.91,15.15,0.11,31.92,12.58,41.88c8.03,6.4,18.07,9.31,28.3,8.16
		C214.18,160.27,219.52,158.49,224.19,155.74"/>
	<path d="M204.45,165.79c-9.76,0-19.18-3.28-26.9-9.44c-14.15-11.31-19.73-30.42-13.91-47.6l1.37-1.65
		c5.34-3.28,11.5-5.37,17.8-6.07c11.44-1.28,22.73,1.97,31.75,9.17c14.15,11.29,19.72,30.42,13.88,47.57l-1.28,1.64
		c-5.4,3.3-11.57,5.39-17.87,6.09C207.67,165.69,206.07,165.79,204.45,165.79 M209.12,164.01h0.04H209.12z M187.64,103.8
		c-1.48,0-2.99,0.07-4.5,0.24c-5.86,0.65-11.57,2.62-16.58,5.66c-5.47,15.99-0.26,33.75,12.89,44.25
		c8.37,6.68,18.83,9.71,29.52,8.54c5.84-0.65,11.58-2.61,16.57-5.65c5.46-15.99,0.28-33.76-12.9-44.26
		C205.47,106.85,196.73,103.8,187.64,103.8 M204.44,162.63c-9.04,0-17.75-3.04-24.92-8.78c-12.91-10.29-18.17-27.78-13.08-43.52
		l0.68-0.85c4.88-2.84,10.42-4.7,16.03-5.31c10.62-1.21,21.07,1.84,29.4,8.5c12.91,10.3,18.17,27.78,13.09,43.53l-0.67,0.84
		c-4.84,2.87-10.41,4.7-16.04,5.33C207.43,162.55,205.95,162.63,204.44,162.63 M169.19,111.83c-4.41,14.4,0.48,30.27,12.24,39.68
		c7.72,6.16,17.37,8.96,27.18,7.85c5.02-0.56,9.95-2.16,14.32-4.63c4.41-14.4-0.48-30.29-12.24-39.69
		c-7.74-6.14-17.38-8.94-27.19-7.85C178.49,107.74,173.57,109.33,169.19,111.83 M224.21,155.74h0.03H224.21z"/>
	<polygon points="223.91,156.93 224.97,156.34 224.73,154.13 167.57,108.53 165.35,108.78 165.61,110.99 222.73,156.61 	"/>
	<path d="M223.73,158.45l-1.95-0.66l-57.13-45.62l-1.16-2.07l0.66-2.29l2.09-1.13l2.28,0.65l57.15,45.61
		c1.34,1.07,1.55,3.01,0.48,4.36l-2.07,1.14L223.73,158.45z M166.63,109.71l57.07,45.7l0.21,1.52l-0.18-1.5l0.07-0.02L166.63,109.71
		z"/>
	<polygon points="232.16,163.53 233.24,162.94 232.98,160.72 226.64,155.65 224.42,155.91 224.64,158.13 230.99,163.19 	"/>
	<path d="M231.98,165.06l-1.95-0.69l-6.35-5.05c-1.33-1.09-1.54-3.04-0.48-4.38c1.09-1.31,3.04-1.51,4.38-0.47l6.34,5.07l1.15,2.07
		l-0.65,2.29l-2.09,1.13L231.98,165.06z M231.96,162l0.04,0.01l0.05-0.02l-6.38-5.14L231.96,162z"/>
	<polygon points="168.6,137.86 168.68,137.85 193.57,133.94 194.88,132.15 193.07,130.84 168.18,134.75 166.86,136.54 	"/>
	<path d="M168.41,139.39c-1.51,0-2.81-1.09-3.04-2.62l0.56-2.33l2.02-1.2l24.89-3.91c1.72-0.25,3.29,0.91,3.56,2.57
		c0.25,1.72-0.89,3.3-2.6,3.55l-24.89,3.91l-0.3-1.49l0.16,1.5L168.41,139.39z M168.42,136.24l0.17,0.1l24.75-3.89L168.42,136.24z"
		/>
	<polygon points="179.25,154 179.33,153.99 212.15,148.85 213.47,147.03 211.65,145.72 178.84,150.88 177.52,152.68 	"/>
	<path d="M179.08,155.53c-1.51,0-2.83-1.09-3.06-2.62c-0.27-1.69,0.91-3.26,2.58-3.53l32.82-5.15c1.67-0.25,3.26,0.89,3.54,2.57
		c0.27,1.7-0.9,3.28-2.57,3.55l-32.84,5.13L179.08,155.53z M179.25,154.01h0.04H179.25z M211.91,147.34l-32.82,5.03v0.12h0.05
		L211.91,147.34z"/>
	<polygon points="194.76,132.39 196.17,130.72 194.53,105.62 192.84,104.14 191.38,105.82 193.01,130.91 194.68,132.4 	"/>
	<path d="M194.52,133.91l-1.98-0.75l-1.06-2.14l-1.64-25.1c-0.11-1.67,1.17-3.14,2.86-3.28h0.22c1.64,0,3.01,1.24,3.13,2.88
		l1.64,25.09c0.11,1.67-1.09,3.12-2.75,3.29v-0.01L194.52,133.91z M194.54,130.82l0.06,0.06l0.05-0.06l-1.66-25.1l1.53,25.1H194.54z
		"/>
	<polygon points="213.17,147.48 214.58,145.81 212.4,112.74 210.71,111.28 209.24,112.96 211.42,146.02 213.09,147.49 	"/>
	<path d="M213.18,149.01v-0.04c-1.82,0-3.17-1.24-3.28-2.85l-2.17-33.06l0.76-2.24l2.15-1.06l0.19-0.01c1.63,0,2.98,1.25,3.11,2.89
		l2.18,33.05c0.08,1.68-1.12,3.12-2.75,3.29L213.18,149.01z M210.88,112.84l2.3,34.65l-0.18-1.51l0.06-0.08L210.88,112.84z"/>
	<path d="M218.15,209.9c-1.26,0-2.51-0.32-3.62-0.93l-1.11-0.75l-0.9-0.61c-5.49-3.81-16.41-11.39-23.62-16.93
		c-27.89-21.68-42.16-37.38-44.92-49.45c-1.29-3.9-2.07-8.76-2.12-13.64c-0.2-13.12,4.77-25.78,13.62-34.77
		c8.07-8.2,18.67-12.72,29.85-12.77c11.99,0,23.13,4.67,31.35,12.96c8.09-8.62,19.15-13.56,31.09-13.71h0.01
		c24.65,0,44.3,20.82,44.64,46.42c0.06,4.92-0.6,9.75-1.97,14.34c-2.28,11.55-16.53,28.03-43.39,49.99
		c-10.24,8.44-18.62,14.74-24.87,18.69C220.99,209.49,219.6,209.9,218.15,209.9 M218.98,201.03h0.11H218.98z M185.36,89.15
		c-8.72,0.03-17.02,3.61-23.37,10.06c-7.15,7.26-11.18,17.57-11.01,28.25c0.04,4.02,0.67,7.93,1.78,11.35
		c2.31,10.03,16.31,24.93,41.74,44.67c7.07,5.44,17.81,12.91,22.41,16.09l1.28,0.9c5.85-3.79,13.6-9.66,23.08-17.45
		c32.56-26.61,39.23-39.71,40.31-45.14c1.24-4.12,1.77-8.03,1.71-12.04c-0.26-20.64-15.82-37.44-34.71-37.44
		c-11.6,0.16-21.58,5.36-28.09,14.33c-0.86,1.16-2.22,1.85-3.64,1.87c-1.56-0.1-2.81-0.64-3.7-1.78
		C206.51,94.13,196.38,89.15,185.36,89.15"/>
</g>
</svg>
